<svg xmlns="http://www.w3.org/2000/svg" width="21" height="21" viewBox="0 0 21 21">
  <g id="Facebook_F_icon" transform="translate(-77.6 -4.6)">
    <path id="Blue_1_" d="M97.443,25.6A1.156,1.156,0,0,0,98.6,24.443V5.757A1.156,1.156,0,0,0,97.443,4.6H78.757A1.162,1.162,0,0,0,77.6,5.757V24.443A1.156,1.156,0,0,0,78.757,25.6H97.443Z" transform="translate(0 0)" fill="#fff"/>
    <path id="f" d="M187.706,61.33V53.2h2.73l.407-3.17h-3.137V48.006c0-.921.253-1.54,1.573-1.54h1.679V43.622a22.184,22.184,0,0,0-2.445-.122,3.816,3.816,0,0,0-4.074,4.189v2.339H181.7V53.2h2.738V61.33Z" transform="translate(-95.617 -35.73)" fill="#405993"/>
  </g>
</svg>
