<svg xmlns="http://www.w3.org/2000/svg" width="20.2" height="20.8" viewBox="0 0 20.2 20.8">
  <g id="Group_16111" data-name="Group 16111" transform="translate(13 -1)">
    <rect id="Rectangle_2" data-name="Rectangle 2" width="20.2" height="20.8" rx="2" transform="translate(-13 1)" fill="#fff"/>
    <path id="path4" d="M11.922,11.524a8.094,8.094,0,0,1-.777,1.429,7.226,7.226,0,0,1-1,1.238,1.922,1.922,0,0,1-1.287.58,3.166,3.166,0,0,1-1.189-.29,3.346,3.346,0,0,0-1.28-.289,3.459,3.459,0,0,0-1.316.289,3.477,3.477,0,0,1-1.137.306,1.81,1.81,0,0,1-1.316-.6A7.585,7.585,0,0,1,1.573,12.91,8.942,8.942,0,0,1,.465,10.66,8.407,8.407,0,0,1,0,7.978,4.985,4.985,0,0,1,.629,5.416,3.733,3.733,0,0,1,1.945,4.054a3.483,3.483,0,0,1,1.78-.514A4.113,4.113,0,0,1,5.1,3.868,4.35,4.35,0,0,0,6.195,4.2,6.426,6.426,0,0,0,7.406,3.81a3.923,3.923,0,0,1,1.646-.3A3.474,3.474,0,0,1,11.79,4.985a3.128,3.128,0,0,0-1.615,2.83,3.155,3.155,0,0,0,1,2.352,3.288,3.288,0,0,0,1,.672q-.12.357-.255.685ZM9.133.3a3.2,3.2,0,0,1-.791,2.069A2.672,2.672,0,0,1,6.1,3.5a2.354,2.354,0,0,1-.017-.28,3.281,3.281,0,0,1,.839-2.091A3.237,3.237,0,0,1,7.949.339,3,3,0,0,1,9.118,0a2.748,2.748,0,0,1,.015.3Z" transform="translate(-9 3.999)"/>
  </g>
</svg>
